<svg xmlns="http://www.w3.org/2000/svg" xmlns:xlink="http://www.w3.org/1999/xlink" width="500" zoomAndPan="magnify" viewBox="0 0 375 374.999991" height="500" preserveAspectRatio="xMidYMid meet" version="1.0"><path fill="#0077e4" d="M 220.640625 187.5 L 368.132812 40.023438 C 377.289062 30.867188 377.289062 16.023438 368.132812 6.867188 C 358.976562 -2.289062 344.132812 -2.289062 334.976562 6.867188 L 187.5 154.359375 L 40.023438 6.867188 C 30.867188 -2.289062 16.023438 -2.289062 6.867188 6.867188 C -2.289062 16.023438 -2.289062 30.867188 6.867188 40.023438 L 154.359375 187.5 L 6.867188 334.976562 C -2.289062 344.132812 -2.289062 358.976562 6.867188 368.132812 C 16.023438 377.289062 30.867188 377.289062 40.023438 368.132812 L 187.5 220.640625 L 334.976562 368.132812 C 344.132812 377.289062 358.976562 377.289062 368.132812 368.132812 C 377.289062 358.976562 377.289062 344.132812 368.132812 334.976562 Z M 220.640625 187.5 " fill-opacity="1" fill-rule="nonzero"/></svg>